<svg width="20" height="20" viewBox="0 0 20 20" fill="none" xmlns="http://www.w3.org/2000/svg">
<path d="M4.99999 18.3333H2.49999C2.05797 18.3333 1.63404 18.1577 1.32148 17.8452C1.00892 17.5326 0.833328 17.1087 0.833328 16.6667V10.8333C0.833328 10.3913 1.00892 9.96739 1.32148 9.65483C1.63404 9.34227 2.05797 9.16667 2.49999 9.16667H4.99999M10.8333 7.5V4.16667C10.8333 3.50363 10.5699 2.86775 10.1011 2.3989C9.63225 1.93006 8.99637 1.66667 8.33333 1.66667L4.99999 9.16667V18.3333H14.4C14.8019 18.3379 15.192 18.197 15.4982 17.9367C15.8045 17.6763 16.0064 17.3141 16.0667 16.9167L17.2167 9.41667C17.2529 9.1778 17.2368 8.93391 17.1694 8.70188C17.1021 8.46986 16.9851 8.25525 16.8265 8.07293C16.668 7.89062 16.4717 7.74495 16.2513 7.64602C16.0309 7.54709 15.7916 7.49727 15.55 7.5H10.8333Z" stroke="#050F19" stroke-width="1.5" stroke-linecap="round" stroke-linejoin="round"/>
</svg>
